<?xml version="1.0" standalone="no"?>
<!DOCTYPE svg PUBLIC "-//W3C//DTD SVG 20010904//EN"
 "http://www.w3.org/TR/2001/REC-SVG-20010904/DTD/svg10.dtd">
<svg version="1.0" xmlns="http://www.w3.org/2000/svg"
 width="512.000000pt" height="512.000000pt" viewBox="0 0 512.000000 512.000000"
 preserveAspectRatio="xMidYMid meet">
<metadata>
Created by potrace 1.14, written by Peter Selinger 2001-2017
</metadata>
<g transform="translate(0.000000,512.000000) scale(0.100000,-0.100000)"
fill="#000000" stroke="none">
<path d="M3262 4663 c-5 -10 -19 -47 -31 -83 -28 -85 -52 -114 -131 -153 -54
-27 -66 -37 -68 -60 -4 -37 8 -51 60 -68 68 -22 121 -83 143 -163 32 -119 95
-129 129 -20 32 105 60 141 133 177 78 38 92 55 75 91 -7 17 -25 29 -54 38
-66 20 -122 82 -148 164 -11 37 -25 73 -31 81 -17 19 -67 16 -77 -4z m87 -255
l43 -48 -29 -24 c-16 -13 -35 -35 -42 -49 l-14 -26 -46 50 -46 50 45 49 c24
27 45 48 46 47 0 -1 20 -23 43 -49z"/>
<path d="M2404 4618 c-4 -7 -26 -120 -49 -253 l-41 -240 -62 -8 c-127 -15
-239 -79 -305 -173 -17 -24 -36 -44 -42 -44 -7 0 -162 48 -345 106 -250 79
-341 104 -364 100 -37 -7 -71 -41 -287 -286 -218 -247 -215 -243 -183 -274 37
-38 53 -25 273 224 183 208 216 240 234 234 50 -15 527 -167 583 -185 l61 -20
-10 -50 c-22 -110 32 -267 123 -359 27 -26 79 -63 116 -81 58 -29 80 -34 159
-37 191 -9 304 59 420 251 9 15 79 -5 655 -188 355 -113 789 -251 965 -307
176 -55 327 -104 335 -109 8 -5 -972 -9 -2187 -9 -1212 0 -2203 3 -2203 8 0 4
68 83 150 176 83 92 150 174 150 182 0 17 -36 54 -53 54 -6 0 -17 -4 -23 -8
-29 -18 -368 -411 -381 -440 -11 -27 -13 -81 -11 -273 l3 -239 33 -32 c30 -31
37 -33 112 -36 l80 -4 0 -249 0 -249 -69 0 c-54 0 -75 -5 -102 -23 -56 -38
-59 -51 -59 -287 0 -195 2 -218 20 -247 36 -60 6 -58 740 -63 l675 -5 40 -28
c22 -15 76 -41 120 -59 95 -37 234 -49 337 -29 64 13 239 89 252 110 5 8 170
11 599 11 520 0 595 2 615 16 28 20 30 69 3 84 -11 6 -88 10 -178 10 l-158 0
64 38 c78 45 192 155 249 238 l41 61 98 18 c54 10 114 23 134 30 40 14 1147
33 1187 21 22 -7 22 -8 20 -204 l-3 -197 -552 -5 c-498 -5 -554 -7 -569 -22
-23 -23 -11 -66 23 -79 17 -6 224 -9 572 -7 594 3 575 1 611 61 18 29 20 52
20 247 0 236 -3 249 -59 287 -27 18 -48 23 -102 23 l-69 0 0 249 0 249 80 4
c75 3 82 5 112 36 l33 32 0 233 0 234 -28 36 c-42 56 135 -5 -1462 502 -341
108 -668 212 -727 231 l-106 34 5 39 c6 41 -10 81 -31 81 -19 0 -59 37 -52 49
6 9 -11 25 -26 26 -3 0 -9 3 -13 7 -4 3 1 5 11 4 20 -3 44 33 44 64 0 27 -26
43 -59 37 -19 -4 -33 -1 -41 8 -7 8 -22 15 -34 15 -17 0 -18 2 -6 10 13 9 13
10 0 10 -11 0 -15 11 -15 37 0 35 -4 40 -43 58 -31 14 -42 25 -39 37 3 9 22
118 43 243 29 169 36 230 28 243 -13 21 -69 28 -80 10z m139 -705 c-4 -11 -8
-13 -11 -5 -2 7 -9 9 -15 5 -7 -4 -6 1 2 10 16 20 33 13 24 -10z m-13 -90 c32
-64 33 -69 31 -123 -1 -66 -11 -100 -39 -145 -14 -22 -25 -45 -25 -52 0 -7 -4
-10 -9 -7 -4 3 -11 -2 -14 -10 -3 -9 -10 -14 -14 -11 -5 3 -12 0 -15 -5 -8
-13 -42 -27 -107 -45 -44 -12 -50 -11 -73 7 -45 35 -22 95 38 100 15 1 27 6
27 10 0 4 7 5 15 2 8 -4 15 -2 15 3 0 6 11 15 25 21 34 16 56 64 58 128 1 39
-2 57 -13 64 -8 5 -11 10 -5 10 5 0 4 5 -3 12 -14 14 -16 62 -2 87 7 14 17 17
47 12 34 -6 41 -12 63 -58z m-496 39 c3 -5 -1 -9 -9 -9 -8 0 -12 4 -9 9 3 4 7
8 9 8 2 0 6 -4 9 -8z m-57 -124 c-3 -8 -6 -5 -6 6 -1 11 2 17 5 13 3 -3 4 -12
1 -19z m108 -97 c-3 -5 -1 -12 5 -16 5 -3 10 -1 10 6 0 9 4 9 15 -1 8 -6 20
-8 26 -4 8 4 9 3 5 -4 -4 -7 -3 -12 3 -12 5 0 13 -9 16 -20 4 -12 11 -17 18
-13 8 5 8 2 0 -9 -7 -8 -10 -18 -7 -21 3 -3 0 -14 -7 -24 -17 -24 -89 -28 -89
-6 0 7 -6 16 -13 19 -14 5 -15 54 -1 76 5 7 9 16 10 21 3 15 4 17 10 17 3 0 3
-4 -1 -9z m512 -43 c-3 -8 -6 -5 -6 6 -1 11 2 17 5 13 3 -3 4 -12 1 -19z m-43
-89 c-3 -5 -11 -9 -17 -8 -8 0 -8 2 1 6 10 4 10 8 0 21 -12 15 -11 16 4 3 10
-7 15 -17 12 -22z m-33 -42 c-10 -9 -11 -8 -5 6 3 10 9 15 12 12 3 -3 0 -11
-7 -18z m-440 -5 c-7 -2 -18 1 -23 6 -8 8 -4 9 13 5 13 -4 18 -8 10 -11z m334
-51 c3 -5 2 -12 -3 -15 -5 -3 -9 1 -9 9 0 17 3 19 12 6z m-65 -31 c-8 -5 -19
-10 -25 -10 -5 0 -3 5 5 10 8 5 20 10 25 10 6 0 3 -5 -5 -10z m-47 -7 c-7 -2
-19 -2 -25 0 -7 3 -2 5 12 5 14 0 19 -2 13 -5z m2632 -585 c3 -13 4 -104 3
-203 l-3 -180 -2375 0 -2375 0 -3 203 -2 202 2375 0 2375 0 5 -22z m-4511
-593 c-4 -8 -8 -15 -10 -15 -2 0 -4 7 -4 15 0 8 4 15 10 15 5 0 7 -7 4 -15z
m4286 0 c0 -8 -2 -15 -4 -15 -2 0 -6 7 -10 15 -3 8 -1 15 4 15 6 0 10 -7 10
-15z m-4275 -94 c-6 -5 -25 10 -25 20 0 5 6 4 14 -3 8 -7 12 -15 11 -17z
m4270 10 c-3 -6 -11 -11 -16 -11 -5 0 -4 6 3 14 14 16 24 13 13 -3z m-3655
-198 c13 -49 25 -94 28 -100 3 -10 -67 -13 -332 -13 l-336 0 0 100 0 100 308
0 309 0 23 -87z m3660 -13 l0 -100 -466 0 -466 0 90 45 c50 25 121 70 159 100
l68 54 308 1 307 0 0 -100z m-1035 -16 c-51 -19 -195 -44 -251 -44 -48 0 -50
-2 -135 -132 -111 -171 -293 -278 -474 -278 -70 0 -178 28 -252 66 -44 22 -79
34 -91 30 -10 -4 -35 -30 -55 -59 -40 -57 -154 -175 -202 -208 -106 -71 -208
-104 -325 -104 -284 1 -532 227 -685 624 -19 50 -35 98 -35 108 0 17 56 18
1272 15 1131 -3 1269 -5 1233 -18z m-2620 -301 c27 -59 77 -149 112 -200 l62
-93 -522 2 -522 3 -3 198 -2 197 413 0 413 0 49 -107z"/>
<path d="M4516 2717 c-22 -16 -26 -78 -7 -101 31 -37 91 -5 91 47 0 28 -31 67
-53 67 -7 0 -21 -6 -31 -13z"/>
<path d="M516 2688 c-31 -44 -7 -108 39 -108 27 0 55 33 55 65 0 32 -28 65
-55 65 -13 0 -31 -10 -39 -22z"/>
<path d="M4202 2628 c-17 -17 -15 -84 4 -102 19 -20 34 -20 62 0 26 18 30 74
6 98 -18 19 -55 21 -72 4z"/>
<path d="M1857 1692 c-19 -21 -22 -64 -7 -93 15 -27 64 -25 84 3 45 64 -27
146 -77 90z"/>
<path d="M692 1538 c-7 -7 -12 -28 -12 -48 0 -43 14 -60 50 -60 36 0 50 17 50
60 0 43 -14 60 -50 60 -14 0 -31 -5 -38 -12z"/>
<path d="M3922 4078 c-5 -7 -15 -33 -22 -58 -27 -101 -63 -145 -152 -184 -92
-41 -90 -81 8 -127 80 -38 117 -83 140 -166 32 -120 97 -121 130 -3 25 89 63
136 138 170 100 44 100 84 2 129 -75 34 -110 75 -137 163 -11 34 -25 68 -31
75 -13 17 -62 17 -76 1z m85 -258 l41 -45 -43 -48 -44 -47 -44 47 -45 47 39
39 c21 22 39 44 39 49 0 16 13 6 57 -42z"/>
<path d="M1462 3614 c-41 -29 -19 -114 30 -114 46 0 65 87 26 114 -12 9 -25
16 -28 16 -3 0 -16 -7 -28 -16z"/>
<path d="M595 3460 c-15 -16 -17 -26 -9 -48 8 -22 15 -27 44 -27 29 0 36 5 44
27 8 22 6 32 -9 48 -10 11 -26 20 -35 20 -9 0 -25 -9 -35 -20z"/>
<path d="M1142 3318 c-7 -7 -12 -28 -12 -48 0 -41 14 -60 46 -60 26 0 54 34
54 67 0 43 -58 71 -88 41z"/>
<path d="M2995 3256 c-39 -28 -16 -116 30 -116 6 0 20 6 30 14 39 28 16 116
-30 116 -6 0 -20 -6 -30 -14z"/>
<path d="M4044 1562 c-30 -20 -37 -79 -13 -109 16 -19 53 -16 72 5 42 46 -10
137 -59 104z"/>
<path d="M3619 1271 c-20 -16 -22 -23 -14 -46 13 -36 46 -48 74 -29 27 20 28
69 2 84 -27 14 -35 13 -62 -9z"/>
<path d="M677 1065 c-8 -8 -25 -46 -36 -85 -26 -84 -73 -137 -140 -160 -24 -7
-50 -24 -58 -36 -24 -37 -8 -62 55 -90 84 -37 119 -76 144 -159 25 -85 33 -95
68 -95 34 0 44 12 63 77 30 101 74 154 149 179 88 29 87 96 -2 123 -64 19
-115 77 -141 161 -23 76 -39 100 -69 100 -10 0 -25 -7 -33 -15z m96 -283 l25
-24 -39 -40 c-21 -22 -39 -45 -39 -51 0 -5 -22 12 -48 39 l-49 49 46 52 45 51
17 -26 c9 -15 28 -38 42 -50z"/>
</g>
</svg>
